<?xml version="1.0" encoding="UTF-8"?> <svg xmlns="http://www.w3.org/2000/svg" width="1639" height="924" viewBox="0 0 1639 924" fill="none"> <path d="M159.05 45.5521C159.05 20.3944 179.446 0 204.607 0H1441.16C1466.32 0 1486.72 20.3944 1486.72 45.5521V894.773C1486.72 898.367 1483.8 901.281 1480.21 901.281H165.558C161.964 901.281 159.05 898.367 159.05 894.773V45.5521Z" fill="#1A202C"></path> <path fill-rule="evenodd" clip-rule="evenodd" d="M1441.16 3.25372H204.607C181.244 3.25372 162.304 22.1914 162.304 45.5521V894.773C162.304 896.57 163.761 898.027 165.558 898.027H1480.21C1482.01 898.027 1483.46 896.57 1483.46 894.773V45.5521C1483.46 22.1914 1464.52 3.25372 1441.16 3.25372ZM204.607 0C179.446 0 159.05 20.3944 159.05 45.5521V894.773C159.05 898.367 161.964 901.281 165.558 901.281H1480.21C1483.8 901.281 1486.72 898.367 1486.72 894.773V45.5521C1486.72 20.3944 1466.32 0 1441.16 0H204.607Z" fill="#4A5568"></path> <path d="M168.073 43.7109C168.073 23.9311 184.091 7.89648 203.851 7.89648H1443.04C1462.8 7.89648 1478.82 23.9311 1478.82 43.7108V867.441H168.073V43.7109Z" fill="black"></path> <path d="M203.042 54.1445H1441.6V831.344H203.042V54.1445Z" fill="white"></path> <path d="M0 897.897C0 896.028 1.45596 894.513 3.25198 894.513H1635.75C1637.54 894.513 1639 896.028 1639 897.897V904.665H0V897.897Z" fill="#A3ACB1"></path> <path d="M0 897.897C0 896.028 1.45596 894.513 3.25198 894.513H1635.75C1637.54 894.513 1639 896.028 1639 897.897V904.665H0V897.897Z" fill="url(#paint0_linear)"></path> <path d="M0 904.665H1639L1605.9 911.225C1563.58 919.615 1520.5 923.841 1477.32 923.841H159.199C111.745 923.841 64.4326 918.737 18.1082 908.62L0 904.665Z" fill="#647279"></path> <path d="M0 904.665H1639L1605.9 911.225C1563.58 919.615 1520.5 923.841 1477.32 923.841H159.199C111.745 923.841 64.4326 918.737 18.1082 908.62L0 904.665Z" fill="url(#paint1_linear)"></path> <path fill-rule="evenodd" clip-rule="evenodd" d="M699.367 894.513C700.205 900.182 696.141 904.665 709.084 904.665H932.173C945.115 904.665 941.052 900.182 941.89 894.513H699.367Z" fill="#96A1A8"></path> <path fill-rule="evenodd" clip-rule="evenodd" d="M699.367 894.513C700.205 900.182 696.141 904.665 709.084 904.665H932.173C945.115 904.665 941.052 900.182 941.89 894.513H699.367Z" fill="url(#paint2_linear)"></path> <defs> <linearGradient id="paint0_linear" x1="-3.17076e-10" y1="899.589" x2="1639" y2="899.589" gradientUnits="userSpaceOnUse"> <stop stop-color="#0D1012"></stop> <stop offset="0.0295345" stop-color="#CAD4DB"></stop> <stop offset="0.0625" stop-color="#242729"></stop> <stop offset="0.133609" stop-color="#A3ACB1"></stop> <stop offset="0.865967" stop-color="#A3ACB1"></stop> <stop offset="0.941937" stop-color="#242729"></stop> <stop offset="0.971275" stop-color="#CAD4DB"></stop> <stop offset="0.996436" stop-color="#0D1012"></stop> </linearGradient> <linearGradient id="paint1_linear" x1="819.5" y1="904.665" x2="819.5" y2="923.841" gradientUnits="userSpaceOnUse"> <stop stop-color="#7A7F83"></stop> <stop offset="1" stop-color="#0B0B0E"></stop> </linearGradient> <linearGradient id="paint2_linear" x1="711.527" y1="900.676" x2="934.616" y2="900.676" gradientUnits="userSpaceOnUse"> <stop stop-color="#3C3C3C"></stop> <stop offset="0.317518" stop-color="#3C3C3C" stop-opacity="0"></stop> <stop offset="0.660584" stop-color="#3C3C3C" stop-opacity="0"></stop> <stop offset="1" stop-color="#444444"></stop> </linearGradient> </defs> </svg> 