<?xml version="1.0" encoding="UTF-8"?> <svg xmlns="http://www.w3.org/2000/svg" width="180" height="360" viewBox="0 0 180 360" fill="none"> <path fill-rule="evenodd" clip-rule="evenodd" d="M32.4228 0.230469C11.2787 0.230469 1.58203 10.2491 1.58203 31.0521V328.948C1.58203 349.751 11.2787 359.77 32.4228 359.77H147.552C168.007 359.77 178.393 349.045 178.393 328.948V31.0521C178.393 10.2491 168.697 0.230469 147.552 0.230469H32.4228Z" fill="#949494"></path> <path fill-rule="evenodd" clip-rule="evenodd" d="M8.91172 7.67787C14.0391 2.51219 21.8204 0 32.4249 0H147.555C158.159 0 165.94 2.51219 171.068 7.67787C176.195 12.8432 178.626 20.6191 178.626 31.052V328.948C178.626 339.034 176.02 346.807 170.809 352.057C165.599 357.308 157.82 360 147.555 360H32.4249C21.8204 360 14.0391 357.488 8.91172 352.322C3.78472 347.157 1.35352 339.381 1.35352 328.948V31.052C1.35352 20.6191 3.78472 12.8432 8.91172 7.67787ZM1.58413 31.052C1.58413 10.2491 11.2808 0.230386 32.4249 0.230386H147.555C168.699 0.230386 178.395 10.2491 178.395 31.052V328.948C178.395 349.045 168.009 359.77 147.555 359.77H32.4249C11.2808 359.77 1.58413 349.751 1.58413 328.948V31.052Z" fill="#62726E"></path> <path fill-rule="evenodd" clip-rule="evenodd" d="M32.5623 2.18164C12.5469 2.18164 3.53516 11.2535 3.53516 31.1678V328.833C3.53516 348.747 12.5469 357.819 32.5623 357.819H147.694C167.015 357.819 176.721 348.046 176.721 328.833V31.1678C176.721 11.2535 167.709 2.18164 147.694 2.18164H32.5623Z" fill="url(#paint0_linear)"></path> <path fill-rule="evenodd" clip-rule="evenodd" d="M32.4632 3.85352H147.786C166.803 3.85352 175.044 12.0792 175.044 31.0065V328.436C175.044 346.665 166.105 355.589 147.786 355.589H32.4632C13.4468 355.589 5.20508 347.363 5.20508 328.436V31.0065C5.20508 12.0792 13.4468 3.85352 32.4632 3.85352Z" fill="url(#paint1_linear)"></path> <path d="M32.4606 6.3623C14.9931 6.3623 7.99609 13.3403 7.99609 30.7497V328.415C7.99609 345.824 14.9931 352.802 32.4606 352.802H147.793C164.562 352.802 172.258 345.127 172.258 328.415V30.7497C172.258 13.3403 165.261 6.3623 147.793 6.3623H32.4606Z" fill="black"></path> <path fill-rule="evenodd" clip-rule="evenodd" d="M174.766 31.0236C174.766 17.9818 170.861 10.0221 162.222 6.33398C162.153 6.87571 162.799 7.55826 163.781 8.59728C166.474 11.4443 171.698 16.9678 171.698 29.6047V329.783C171.698 342.317 166.815 347.63 164.142 350.538C163.328 351.424 162.719 352.087 162.515 352.662C170.727 348.707 174.766 340.656 174.766 328.391V31.0236ZM5.48438 328.322C5.48438 341.377 9.39018 349.345 18.0291 353.036C18.0977 352.494 17.4521 351.811 16.4694 350.771C13.7768 347.921 8.55272 342.392 8.55272 329.742V29.2635C8.55272 16.7175 13.436 11.3991 16.1087 8.48807C16.9229 7.60136 17.5319 6.93803 17.7354 6.36185C9.52345 10.3205 5.48438 18.3801 5.48438 30.657V328.322Z" fill="white" fill-opacity="0.78"></path> <path opacity="0.45" d="M1.52148 323.258H3.53209V325.713H1.52148V323.258Z" fill="black"></path> <path opacity="0.45" d="M1.41016 33.9111H3.53246V36.4776H1.41016V33.9111Z" fill="black"></path> <path opacity="0.45" d="M176.781 323.258H178.457V325.713H176.781V323.258Z" fill="black"></path> <path opacity="0.45" d="M176.781 33.9111H178.345V36.4776H176.781V33.9111Z" fill="black"></path> <path opacity="0.447803" fill-rule="evenodd" clip-rule="evenodd" d="M35.9277 357.851H38.3851V359.748H35.9277V357.851Z" fill="black"></path> <path opacity="0.447803" fill-rule="evenodd" clip-rule="evenodd" d="M141.598 0.211914H144.055V2.22049H141.598V0.211914Z" fill="black"></path> <path fill-rule="evenodd" clip-rule="evenodd" d="M0.884943 93.2158C0.597218 93.2905 0.252193 93.4816 0.0679625 93.7531C0.0300156 93.8091 0 93.986 0 94.0372C0 96.6044 0 104.424 0 117.496C0 117.55 0.042248 117.826 0.0681162 117.893C0.2172 118.279 0.476237 118.372 0.884943 118.595H1.39062C1.39062 117.892 1.39914 93.9026 1.39062 93.2158H0.884943Z" fill="#C0C0C0"></path> <path fill-rule="evenodd" clip-rule="evenodd" d="M0.884943 126.424C0.597218 126.498 0.252193 126.69 0.0679625 126.961C0.0300156 127.017 0 127.194 0 127.245C0 129.812 0 137.632 0 150.704C0 150.758 0.042248 151.034 0.0681162 151.101C0.2172 151.487 0.476237 151.58 0.884943 151.803H1.39062C1.39062 151.1 1.39914 127.111 1.39062 126.424H0.884943Z" fill="#C0C0C0"></path> <path fill-rule="evenodd" clip-rule="evenodd" d="M0.884943 67.8359C0.396202 67.8359 0 68.2675 0 68.7998V80.6416C0 81.1739 0.396202 81.6054 0.884943 81.6054H1.39062C1.39062 80.8812 1.39914 68.5439 1.39062 67.8359H0.884943Z" fill="#C0C0C0"></path> <path fill-rule="evenodd" clip-rule="evenodd" d="M179.115 106.85C179.604 106.85 180 108.14 180 109.732V145.141C180 146.733 179.604 148.023 179.115 148.023H178.609C178.609 145.857 178.601 108.967 178.609 106.85H179.115Z" fill="#C0C0C0"></path> <path fill-rule="evenodd" clip-rule="evenodd" d="M108.889 16.3909C110.275 16.3909 111.399 15.2678 111.399 13.8824C111.399 12.4971 110.275 11.374 108.889 11.374C107.503 11.374 106.379 12.4971 106.379 13.8824C106.379 15.2678 107.503 16.3909 108.889 16.3909Z" fill="url(#paint2_linear)"></path> <path fill-rule="evenodd" clip-rule="evenodd" d="M108.868 14.9202C109.582 14.9202 110.16 14.3684 110.16 13.6876C110.16 13.0069 109.582 12.4551 108.868 12.4551C108.155 12.4551 107.576 13.0069 107.576 13.6876C107.576 14.3684 108.155 14.9202 108.868 14.9202Z" fill="url(#paint3_radial)"></path> <path fill-rule="evenodd" clip-rule="evenodd" d="M108.868 14.8473C109.545 14.8473 110.087 14.3249 110.087 13.6876C110.087 13.0503 109.545 12.528 108.868 12.528C108.192 12.528 107.649 13.0503 107.649 13.6876C107.649 14.3249 108.192 14.8473 108.868 14.8473ZM110.16 13.6876C110.16 14.3684 109.582 14.9202 108.868 14.9202C108.155 14.9202 107.576 14.3684 107.576 13.6876C107.576 13.0069 108.155 12.4551 108.868 12.4551C109.582 12.4551 110.16 13.0069 110.16 13.6876Z" fill="black"></path> <path fill-rule="evenodd" clip-rule="evenodd" d="M108.87 14.8022C109.453 14.8022 109.927 14.3555 109.927 13.8044C109.927 13.2534 109.453 12.8066 108.87 12.8066C108.286 12.8066 107.812 13.2534 107.812 13.8044C107.812 14.3555 108.286 14.8022 108.87 14.8022Z" fill="url(#paint4_radial)"></path> <path opacity="0.772913" fill-rule="evenodd" clip-rule="evenodd" d="M108.868 13.9805C109.128 13.9805 109.338 13.7702 109.338 13.5107C109.338 13.2513 109.128 13.041 108.868 13.041C108.609 13.041 108.398 13.2513 108.398 13.5107C108.398 13.7702 108.609 13.9805 108.868 13.9805Z" fill="url(#paint5_radial)"></path> <path opacity="0.283465" fill-rule="evenodd" clip-rule="evenodd" d="M109.454 15.0371C109.714 15.0371 109.924 14.8268 109.924 14.5674C109.924 14.308 109.714 14.0977 109.454 14.0977C109.195 14.0977 108.984 14.308 108.984 14.5674C108.984 14.8268 109.195 15.0371 109.454 15.0371Z" fill="url(#paint6_radial)"></path> <path fill-rule="evenodd" clip-rule="evenodd" d="M108.869 12.9798C109.126 12.9798 109.37 13.0947 109.335 13.0106C109.3 12.9265 109.126 12.8066 108.869 12.8066C108.612 12.8066 108.444 12.9265 108.403 13.0106C108.362 13.0947 108.612 12.9798 108.869 12.9798Z" fill="#BBBBBB" fill-opacity="0.16999"></path> <path opacity="0.755422" fill-rule="evenodd" clip-rule="evenodd" d="M108.868 14.3417C109.063 14.3417 109.22 14.3002 109.22 14.3952C109.22 14.4903 109.063 14.5674 108.868 14.5674C108.673 14.5674 108.516 14.4903 108.516 14.3952C108.516 14.3002 108.673 14.3417 108.868 14.3417Z" fill="#5A5A5A" fill-opacity="0.20419"></path> <path fill-rule="evenodd" clip-rule="evenodd" d="M108.868 14.0983C109.128 14.0983 109.338 13.9143 109.338 13.6873C109.338 13.4604 109.128 13.2764 108.868 13.2764C108.609 13.2764 108.398 13.4604 108.398 13.6873C108.398 13.9143 108.609 14.0983 108.868 14.0983Z" fill="white" fill-opacity="0.570171" style="mix-blend-mode:overlay"></path> <path fill-rule="evenodd" clip-rule="evenodd" d="M108.927 14.0983C109.154 14.0983 109.338 13.9143 109.338 13.6873C109.338 13.4604 109.154 13.2764 108.927 13.2764C108.7 13.2764 108.516 13.4604 108.516 13.6873C108.516 13.9143 108.7 14.0983 108.927 14.0983Z" fill="black" fill-opacity="0.570171" style="mix-blend-mode:overlay"></path> <path fill-rule="evenodd" clip-rule="evenodd" d="M108.868 14.098C109.063 14.098 109.22 13.9403 109.22 13.7458C109.22 13.5513 109.063 13.3936 108.868 13.3936C108.673 13.3936 108.516 13.5513 108.516 13.7458C108.516 13.9403 108.673 14.098 108.868 14.098Z" fill="url(#paint7_radial)"></path> <path opacity="0.391966" fill-rule="evenodd" clip-rule="evenodd" d="M108.868 13.9093C108.997 13.9093 109.102 13.8053 109.102 13.9093C109.102 14.0133 108.997 14.0977 108.868 14.0977C108.738 14.0977 108.633 14.0133 108.633 13.9093C108.633 13.8053 108.738 13.9093 108.868 13.9093Z" fill="#818181"></path> <path opacity="0.755422" fill-rule="evenodd" clip-rule="evenodd" d="M108.868 13.8682C108.932 13.8682 108.985 13.8475 108.985 13.8948C108.985 13.9421 108.932 13.9805 108.868 13.9805C108.803 13.9805 108.75 13.9421 108.75 13.8948C108.75 13.8475 108.803 13.8682 108.868 13.8682Z" fill="#7A7A7A"></path> <path opacity="0.980352" fill-rule="evenodd" clip-rule="evenodd" d="M108.809 13.6034C108.906 13.6034 108.997 13.6682 108.984 13.588C108.971 13.5078 108.906 13.3936 108.809 13.3936C108.713 13.3936 108.65 13.5078 108.634 13.588C108.619 13.6682 108.713 13.6034 108.809 13.6034Z" fill="#E4D3F2" fill-opacity="0.526183"></path> <path opacity="0.657241" fill-rule="evenodd" clip-rule="evenodd" d="M108.809 14.4499C108.971 14.4499 109.103 14.3448 109.103 14.2152C109.103 14.0856 108.971 13.9805 108.809 13.9805C108.647 13.9805 108.516 14.0856 108.516 14.2152C108.516 14.3448 108.647 14.4499 108.809 14.4499Z" fill="#A4A4A4"></path> <path opacity="0.170243" fill-rule="evenodd" clip-rule="evenodd" d="M108.224 14.0983C108.646 14.0983 108.988 13.7567 108.988 13.3353C108.988 12.9139 108.646 12.5723 108.224 12.5723C107.803 12.5723 107.461 12.9139 107.461 13.3353C107.461 13.7567 107.803 14.0983 108.224 14.0983Z" fill="url(#paint8_radial)"></path> <path d="M78.832 13.9256C78.832 13.1345 79.474 12.4932 80.2659 12.4932H99.4433C100.235 12.4932 100.877 13.1345 100.877 13.9256V13.9256C100.877 14.7167 100.235 15.358 99.4433 15.358H80.2659C79.474 15.358 78.832 14.7167 78.832 13.9256V13.9256Z" fill="#151414"></path> <mask id="mask0" mask-type="alpha" maskUnits="userSpaceOnUse" x="78" y="12" width="23" height="4"> <path d="M78.832 13.9256C78.832 13.1345 79.474 12.4932 80.2659 12.4932H99.4433C100.235 12.4932 100.877 13.1345 100.877 13.9256V13.9256C100.877 14.7167 100.235 15.358 99.4433 15.358H80.2659C79.474 15.358 78.832 14.7167 78.832 13.9256V13.9256Z" fill="white"></path> </mask> <g mask="url(#mask0)"> <path opacity="0.05" fill-rule="evenodd" clip-rule="evenodd" d="M75.7356 10.2441L76.4661 10.9742L77.1967 10.2441L77.9272 10.9742L78.6577 10.2441L79.3883 10.9742L80.1188 10.2441L80.8493 10.9742L81.5799 10.2441L82.3104 10.9742L83.0409 10.2441L83.7715 10.9742L84.502 10.2441L85.2325 10.9742L85.9631 10.2441L86.6936 10.9742L87.4241 10.2441L88.1547 10.9742L88.8852 10.2441L89.6157 10.9742L90.3463 10.2441L91.0768 10.9742L91.8073 10.2441L92.5379 10.9742L93.2684 10.2441L93.999 10.9742L94.7295 10.2441L95.46 10.9742L96.1906 10.2441L96.9211 10.9742L97.6516 10.2441L98.3822 10.9742L99.0855 10.2713L99.1399 10.3256L98.4365 11.0285L99.1127 11.7043L100.547 10.2713L100.601 10.3256L99.167 11.7586L99.8432 12.4344L102.008 10.2713L102.062 10.3256L99.8976 12.4887L100.574 13.1645L103.469 10.2713L103.523 10.3256L100.628 13.2188L101.304 13.8946L104.93 10.2713L104.984 10.3256L101.359 13.9489L105.569 18.1563L105.514 18.2106L101.304 14.0032L100.628 14.679L104.108 18.1563L104.053 18.2106L100.574 14.7333L99.8976 15.4091L102.646 18.1563L102.592 18.2106L99.8432 15.4634L99.167 16.1392L101.185 18.1563L101.131 18.2106L99.1127 16.1935L98.4365 16.8693L99.7243 18.1563L99.6699 18.2106L98.3822 16.9236L97.706 17.5994L98.2632 18.1563L98.2089 18.2106L97.6516 17.6537L97.0944 18.2106L97.04 18.1563L97.5973 17.5994L96.9211 16.9236L96.2449 17.5994L96.8022 18.1563L96.7478 18.2106L96.1906 17.6537L95.6333 18.2106L95.5789 18.1563L96.1362 17.5994L95.46 16.9236L94.7838 17.5994L95.3411 18.1563L95.2867 18.2106L94.7295 17.6537L94.1722 18.2106L94.1179 18.1563L94.6751 17.5994L93.999 16.9236L93.3228 17.5994L93.88 18.1563L93.8257 18.2106L93.2684 17.6537L92.7112 18.2106L92.6568 18.1563L93.2141 17.5994L92.5379 16.9236L91.8617 17.5994L92.419 18.1563L92.3646 18.2106L91.8073 17.6537L91.2501 18.2106L91.1957 18.1563L91.753 17.5994L91.0768 16.9236L90.4006 17.5994L90.9579 18.1563L90.9035 18.2106L90.3463 17.6537L89.789 18.2106L89.7347 18.1563L90.2919 17.5994L89.6157 16.9236L88.9396 17.5994L89.4968 18.1563L89.4424 18.2106L88.8852 17.6537L88.328 18.2106L88.2736 18.1563L88.8309 17.5994L88.1547 16.9236L87.4785 17.5994L88.0357 18.1563L87.9814 18.2106L87.4241 17.6537L86.8669 18.2106L86.8125 18.1563L87.3698 17.5994L86.6936 16.9236L86.0174 17.5994L86.5747 18.1563L86.5203 18.2106L85.9631 17.6537L85.4058 18.2106L85.3515 18.1563L85.9087 17.5994L85.2325 16.9236L84.5563 17.5994L85.1136 18.1563L85.0592 18.2106L84.502 17.6537L83.9447 18.2106L83.8904 18.1563L84.4477 17.5994L83.7715 16.9236L83.0953 17.5994L83.6525 18.1563L83.5982 18.2106L83.0409 17.6537L82.4837 18.2106L82.4293 18.1563L82.9866 17.5994L82.3104 16.9236L81.6342 17.5994L82.1915 18.1563L82.1371 18.2106L81.5799 17.6537L81.0226 18.2106L80.9682 18.1563L81.5255 17.5994L80.8493 16.9236L80.1731 17.5994L80.7304 18.1563L80.676 18.2106L80.1188 17.6537L79.5615 18.2106L79.5072 18.1563L80.0644 17.5994L79.3883 16.9236L78.7121 17.5994L79.2693 18.1563L79.215 18.2106L78.6577 17.6537L78.1005 18.2106L78.0461 18.1563L78.6034 17.5994L77.9272 16.9236L77.251 17.5994L77.8083 18.1563L77.7539 18.2106L77.1967 17.6537L76.6394 18.2106L76.585 18.1563L77.1423 17.5994L76.4661 16.9236L75.7899 17.5994L76.3472 18.1563L76.2928 18.2106L75.7356 17.6537L75.1783 18.2106L75.124 18.1563L75.6812 17.5994L75.005 16.9236L74.3289 17.5994L74.8861 18.1563L74.8318 18.2106L74.2745 17.6537L73.7173 18.2106L73.6629 18.1563L74.2202 17.5994L73.544 16.9236L72.8678 17.5994L73.425 18.1563L73.3707 18.2106L72.8134 17.6537L72.2562 18.2106L72.2018 18.1563L72.7591 17.5994L72.0829 16.9236L70.7951 18.2106L70.7408 18.1563L72.0286 16.8693L71.3524 16.1935L69.3341 18.2106L69.2797 18.1563L71.298 16.1392L70.6218 15.4634L67.873 18.2106L67.8186 18.1563L70.5675 15.4091L69.8913 14.7333L66.4119 18.2106L66.3576 18.1563L69.837 14.679L69.1608 14.0032L64.9509 18.2106L64.8965 18.1563L69.1064 13.9489L65.4809 10.3256L65.5353 10.2713L69.1608 13.8946L69.837 13.2188L66.942 10.3256L66.9964 10.2713L69.8913 13.1645L70.5675 12.4887L68.4031 10.3256L68.4574 10.2713L70.6218 12.4344L71.298 11.7586L69.8641 10.3256L69.9185 10.2713L71.3524 11.7043L72.0286 11.0285L71.3252 10.3256L71.3796 10.2713L72.0829 10.9742L72.8134 10.2441L73.544 10.9742L74.2745 10.2441L75.005 10.9742L75.7356 10.2441ZM74.9507 11.0285L74.2745 10.3528L73.5983 11.0285L74.2745 11.7043L74.9507 11.0285ZM74.3289 11.7586L75.005 11.0829L75.6812 11.7586L75.005 12.4344L74.3289 11.7586ZM74.2202 11.7586L73.544 11.0829L72.8678 11.7586L73.544 12.4344L74.2202 11.7586ZM73.5983 12.4887L74.2745 11.8129L74.9507 12.4887L74.2745 13.1645L73.5983 12.4887ZM73.4896 12.4887L72.8134 11.8129L72.1373 12.4887L72.8134 13.1645L73.4896 12.4887ZM72.8678 13.2188L73.544 12.543L74.2202 13.2188L73.544 13.8946L72.8678 13.2188ZM72.7591 13.2188L72.0829 12.543L71.4067 13.2188L72.0829 13.8946L72.7591 13.2188ZM72.1373 13.9489L72.8134 13.2731L73.4896 13.9489L72.8134 14.6247L72.1373 13.9489ZM72.0286 13.9489L71.3524 13.2731L70.6762 13.9489L71.3524 14.6247L72.0286 13.9489ZM71.4067 14.679L72.0829 14.0032L72.7591 14.679L72.0829 15.3548L71.4067 14.679ZM71.298 14.679L70.6218 14.0032L69.9456 14.679L70.6218 15.3548L71.298 14.679ZM70.6762 15.4091L71.3524 14.7333L72.0286 15.4091L71.3524 16.0849L70.6762 15.4091ZM71.4067 16.1392L72.0829 16.815L72.7591 16.1392L72.0829 15.4634L71.4067 16.1392ZM72.1373 15.4091L72.8134 16.0849L73.4896 15.4091L72.8134 14.7333L72.1373 15.4091ZM72.8678 14.679L73.544 15.3548L74.2202 14.679L73.544 14.0032L72.8678 14.679ZM73.5983 13.9489L74.2745 14.6247L74.9507 13.9489L74.2745 13.2731L73.5983 13.9489ZM74.3289 13.2188L75.005 13.8946L75.6812 13.2188L75.005 12.543L74.3289 13.2188ZM75.0594 12.4887L75.7356 13.1645L76.4118 12.4887L75.7356 11.8129L75.0594 12.4887ZM75.7899 11.7586L76.4661 12.4344L77.1423 11.7586L76.4661 11.0829L75.7899 11.7586ZM76.4118 11.0285L75.7356 10.3528L75.0594 11.0285L75.7356 11.7043L76.4118 11.0285ZM76.5205 11.0285L77.1966 11.7043L77.8728 11.0285L77.1967 10.3528L76.5205 11.0285ZM77.9272 11.0829L77.251 11.7586L77.9272 12.4344L78.6034 11.7586L77.9272 11.0829ZM78.6577 11.8129L77.9815 12.4887L78.6577 13.1645L79.3339 12.4887L78.6577 11.8129ZM79.3883 12.4344L78.7121 11.7586L79.3883 11.0829L80.0644 11.7586L79.3883 12.4344ZM79.3883 12.543L78.7121 13.2188L79.3883 13.8946L80.0644 13.2188L79.3883 12.543ZM80.1188 13.1645L79.4426 12.4887L80.1188 11.8129L80.795 12.4887L80.1188 13.1645ZM80.1188 13.2731L79.4426 13.9489L80.1188 14.6247L80.795 13.9489L80.1188 13.2731ZM80.8493 13.8946L80.1731 13.2188L80.8493 12.543L81.5255 13.2188L80.8493 13.8946ZM80.8493 14.0032L80.1731 14.679L80.8493 15.3548L81.5255 14.679L80.8493 14.0032ZM81.5799 14.6247L80.9037 13.9489L81.5799 13.2731L82.256 13.9489L81.5799 14.6247ZM81.5799 14.7333L80.9037 15.4091L81.5799 16.0849L82.256 15.4091L81.5799 14.7333ZM82.3104 15.3548L81.6342 14.679L82.3104 14.0032L82.9866 14.679L82.3104 15.3548ZM82.3104 15.4634L81.6342 16.1392L82.3104 16.815L82.9866 16.1392L82.3104 15.4634ZM83.0409 16.0849L82.3647 15.4091L83.0409 14.7333L83.7171 15.4091L83.0409 16.0849ZM83.0409 16.1935L82.3647 16.8693L83.0409 17.545L83.7171 16.8693L83.0409 16.1935ZM83.7715 16.815L83.0953 16.1392L83.7715 15.4634L84.4476 16.1392L83.7715 16.815ZM83.8258 16.8693L84.502 17.545L85.1782 16.8693L84.502 16.1935L83.8258 16.8693ZM84.5563 16.1392L85.2325 16.815L85.9087 16.1392L85.2325 15.4634L84.5563 16.1392ZM85.2869 15.4091L85.9631 16.0849L86.6393 15.4091L85.9631 14.7333L85.2869 15.4091ZM85.9087 14.679L85.2325 15.3548L84.5563 14.679L85.2325 14.0032L85.9087 14.679ZM86.0174 14.679L86.6936 15.3548L87.3698 14.679L86.6936 14.0032L86.0174 14.679ZM86.6393 13.9489L85.9631 14.6247L85.2869 13.9489L85.9631 13.2731L86.6393 13.9489ZM86.7479 13.9489L87.4241 14.6247L88.1003 13.9489L87.4241 13.2731L86.7479 13.9489ZM87.3698 13.2188L86.6936 13.8946L86.0174 13.2188L86.6936 12.543L87.3698 13.2188ZM87.4785 13.2188L88.1547 13.8946L88.8309 13.2188L88.1547 12.543L87.4785 13.2188ZM88.1003 12.4887L87.4241 13.1645L86.7479 12.4887L87.4241 11.813L88.1003 12.4887ZM88.209 12.4887L88.8852 13.1645L89.5614 12.4887L88.8852 11.8129L88.209 12.4887ZM88.8309 11.7586L88.1547 12.4344L87.4785 11.7586L88.1547 11.0829L88.8309 11.7586ZM88.9396 11.7586L89.6157 12.4344L90.2919 11.7586L89.6157 11.0829L88.9396 11.7586ZM89.5614 11.0285L88.8852 11.7043L88.209 11.0285L88.8852 10.3528L89.5614 11.0285ZM89.6701 11.0285L90.3463 11.7043L91.0225 11.0285L90.3463 10.3528L89.6701 11.0285ZM91.0768 11.0829L90.4006 11.7586L91.0768 12.4344L91.753 11.7586L91.0768 11.0829ZM91.8073 11.8129L91.1312 12.4887L91.8073 13.1645L92.4835 12.4887L91.8073 11.8129ZM92.5379 12.4344L91.8617 11.7586L92.5379 11.0829L93.2141 11.7586L92.5379 12.4344ZM92.5379 12.543L91.8617 13.2188L92.5379 13.8946L93.2141 13.2188L92.5379 12.543ZM93.2684 13.1645L92.5922 12.4887L93.2684 11.813L93.9446 12.4887L93.2684 13.1645ZM93.2684 13.2731L92.5922 13.9489L93.2684 14.6247L93.9446 13.9489L93.2684 13.2731ZM93.999 13.8946L93.3228 13.2188L93.999 12.543L94.6751 13.2188L93.999 13.8946ZM93.999 14.0032L93.3228 14.679L93.999 15.3548L94.6751 14.679L93.999 14.0032ZM94.7295 14.6247L94.0533 13.9489L94.7295 13.2731L95.4057 13.9489L94.7295 14.6247ZM94.7295 14.7333L94.0533 15.4091L94.7295 16.0849L95.4057 15.4091L94.7295 14.7333ZM95.46 15.3548L94.7838 14.679L95.46 14.0032L96.1362 14.679L95.46 15.3548ZM95.46 15.4634L94.7838 16.1392L95.46 16.815L96.1362 16.1392L95.46 15.4634ZM96.1906 16.0849L95.5144 15.4091L96.1906 14.7333L96.8667 15.4091L96.1906 16.0849ZM96.1906 16.1935L95.5144 16.8693L96.1906 17.5451L96.8667 16.8693L96.1906 16.1935ZM96.9211 16.815L96.2449 16.1392L96.9211 15.4634L97.5973 16.1392L96.9211 16.815ZM96.9754 16.8693L97.6516 17.5451L98.3278 16.8693L97.6516 16.1935L96.9754 16.8693ZM97.706 16.1392L98.3822 16.815L99.0583 16.1392L98.3822 15.4634L97.706 16.1392ZM98.4365 15.4091L99.1127 16.0849L99.7889 15.4091L99.1127 14.7333L98.4365 15.4091ZM99.0583 14.679L98.3822 15.3548L97.706 14.679L98.3822 14.0032L99.0583 14.679ZM99.167 14.679L99.8432 15.3548L100.519 14.679L99.8432 14.0032L99.167 14.679ZM99.7889 13.9489L99.1127 14.6247L98.4365 13.9489L99.1127 13.2731L99.7889 13.9489ZM99.8976 13.9489L100.574 14.6247L101.25 13.9489L100.574 13.2731L99.8976 13.9489ZM100.519 13.2188L99.8432 13.8946L99.167 13.2188L99.8432 12.543L100.519 13.2188ZM99.7889 12.4887L99.1127 11.8129L98.4365 12.4887L99.1127 13.1645L99.7889 12.4887ZM99.0583 13.2188L98.3822 12.543L97.706 13.2188L98.3822 13.8946L99.0583 13.2188ZM98.3278 13.9489L97.6516 13.2731L96.9754 13.9489L97.6516 14.6247L98.3278 13.9489ZM97.5973 14.679L96.9211 14.0032L96.2449 14.679L96.9211 15.3548L97.5973 14.679ZM96.9754 15.4091L97.6516 16.0849L98.3278 15.4091L97.6516 14.7333L96.9754 15.4091ZM96.1906 14.6247L96.8667 13.9489L96.1906 13.2731L95.5144 13.9489L96.1906 14.6247ZM95.46 13.8946L96.1362 13.2188L95.46 12.543L94.7838 13.2188L95.46 13.8946ZM94.7295 13.1645L95.4057 12.4887L94.7295 11.8129L94.0533 12.4887L94.7295 13.1645ZM93.999 12.4344L94.6751 11.7586L93.999 11.0829L93.3228 11.7586L93.999 12.4344ZM93.2684 11.7043L93.9446 11.0285L93.2684 10.3528L92.5922 11.0285L93.2684 11.7043ZM94.0533 11.0285L94.7295 11.7043L95.4057 11.0285L94.7295 10.3528L94.0533 11.0285ZM95.46 11.0829L94.7838 11.7586L95.46 12.4344L96.1362 11.7586L95.46 11.0829ZM96.1906 11.8129L95.5144 12.4887L96.1906 13.1645L96.8667 12.4887L96.1906 11.8129ZM96.9211 12.4344L96.2449 11.7586L96.9211 11.0829L97.5973 11.7586L96.9211 12.4344ZM96.9211 12.543L96.2449 13.2188L96.9211 13.8946L97.5973 13.2188L96.9211 12.543ZM97.6516 13.1645L96.9754 12.4887L97.6516 11.8129L98.3278 12.4887L97.6516 13.1645ZM98.3822 12.4344L99.0583 11.7586L98.3822 11.0829L97.706 11.7586L98.3822 12.4344ZM97.6516 11.7043L98.3278 11.0285L97.6516 10.3528L96.9754 11.0285L97.6516 11.7043ZM96.8667 11.0285L96.1906 11.7043L95.5144 11.0285L96.1906 10.3528L96.8667 11.0285ZM95.4057 16.8693L94.7295 16.1935L94.0533 16.8693L94.7295 17.5451L95.4057 16.8693ZM93.999 16.815L94.6751 16.1392L93.999 15.4634L93.3228 16.1392L93.999 16.815ZM93.2684 16.0849L93.9446 15.4091L93.2684 14.7333L92.5922 15.4091L93.2684 16.0849ZM92.5379 15.4634L93.2141 16.1392L92.5379 16.815L91.8617 16.1392L92.5379 15.4634ZM92.5379 15.3548L93.2141 14.679L92.5379 14.0032L91.8617 14.679L92.5379 15.3548ZM91.8073 14.7333L92.4835 15.4091L91.8073 16.0849L91.1312 15.4091L91.8073 14.7333ZM91.8073 14.6247L92.4835 13.9489L91.8073 13.2731L91.1312 13.9489L91.8073 14.6247ZM91.0768 14.0032L91.753 14.679L91.0768 15.3548L90.4006 14.679L91.0768 14.0032ZM91.0768 13.8946L91.753 13.2188L91.0768 12.543L90.4006 13.2188L91.0768 13.8946ZM90.3463 13.2731L91.0225 13.9489L90.3463 14.6247L89.6701 13.9489L90.3463 13.2731ZM90.3463 13.1645L91.0225 12.4887L90.3463 11.8129L89.6701 12.4887L90.3463 13.1645ZM89.6157 12.543L90.2919 13.2188L89.6157 13.8946L88.9395 13.2188L89.6157 12.543ZM88.8852 13.2731L88.209 13.9489L88.8852 14.6247L89.5614 13.9489L88.8852 13.2731ZM89.6157 14.0032L88.9396 14.679L89.6157 15.3548L90.2919 14.679L89.6157 14.0032ZM90.3463 14.7333L89.6701 15.4091L90.3463 16.0849L91.0225 15.4091L90.3463 14.7333ZM91.0768 15.4634L90.4006 16.1392L91.0768 16.815L91.753 16.1392L91.0768 15.4634ZM91.8073 16.1935L91.1312 16.8693L91.8073 17.5451L92.4835 16.8693L91.8073 16.1935ZM91.0225 16.8693L90.3463 16.1935L89.6701 16.8693L90.3463 17.5451L91.0225 16.8693ZM89.6157 16.815L90.2919 16.1392L89.6157 15.4634L88.9396 16.1392L89.6157 16.815ZM88.8852 16.0849L89.5614 15.4091L88.8852 14.7333L88.209 15.4091L88.8852 16.0849ZM88.1547 15.4634L88.8309 16.1392L88.1547 16.815L87.4785 16.1392L88.1547 15.4634ZM88.1547 15.3548L88.8309 14.679L88.1547 14.0032L87.4785 14.679L88.1547 15.3548ZM87.4241 14.7333L88.1003 15.4091L87.4241 16.0849L86.7479 15.4091L87.4241 14.7333ZM86.6936 15.4634L86.0174 16.1392L86.6936 16.815L87.3698 16.1392L86.6936 15.4634ZM87.4241 16.1935L86.7479 16.8693L87.4241 17.5451L88.1003 16.8693L87.4241 16.1935ZM86.6393 16.8693L85.9631 16.1935L85.2869 16.8693L85.9631 17.5451L86.6393 16.8693ZM88.209 16.8693L88.8852 16.1935L89.5614 16.8693L88.8852 17.5451L88.209 16.8693ZM92.5922 16.8693L93.2684 16.1935L93.9446 16.8693L93.2684 17.5451L92.5922 16.8693ZM92.4835 11.0285L91.8073 11.7043L91.1312 11.0285L91.8073 10.3528L92.4835 11.0285ZM88.1003 11.0285L87.4241 10.3528L86.7479 11.0285L87.4241 11.7043L88.1003 11.0285ZM87.3698 11.7586L86.6936 11.0829L86.0174 11.7586L86.6936 12.4344L87.3698 11.7586ZM86.6393 12.4887L85.9631 11.813L85.2869 12.4887L85.9631 13.1645L86.6393 12.4887ZM85.9087 13.2188L85.2325 12.543L84.5563 13.2188L85.2325 13.8946L85.9087 13.2188ZM85.1782 13.9489L84.502 13.2731L83.8258 13.9489L84.502 14.6247L85.1782 13.9489ZM84.4476 14.679L83.7715 14.0032L83.0953 14.679L83.7715 15.3548L84.4476 14.679ZM83.8258 15.4091L84.502 16.0849L85.1782 15.4091L84.502 14.7333L83.8258 15.4091ZM83.0409 14.6247L83.7171 13.9489L83.0409 13.2731L82.3647 13.9489L83.0409 14.6247ZM82.3104 13.8946L82.9866 13.2188L82.3104 12.543L81.6342 13.2188L82.3104 13.8946ZM81.5799 13.1645L82.256 12.4887L81.5799 11.8129L80.9037 12.4887L81.5799 13.1645ZM80.8493 12.4344L81.5255 11.7586L80.8493 11.0829L80.1731 11.7586L80.8493 12.4344ZM80.1188 11.7043L80.795 11.0285L80.1188 10.3528L79.4426 11.0285L80.1188 11.7043ZM80.9037 11.0285L81.5799 11.7043L82.256 11.0285L81.5799 10.3528L80.9037 11.0285ZM82.3104 11.0829L81.6342 11.7586L82.3104 12.4344L82.9866 11.7586L82.3104 11.0829ZM83.0409 11.8129L82.3647 12.4887L83.0409 13.1645L83.7171 12.4887L83.0409 11.8129ZM83.7715 12.4344L83.0953 11.7586L83.7715 11.0829L84.4476 11.7586L83.7715 12.4344ZM83.7715 12.543L83.0953 13.2188L83.7715 13.8946L84.4476 13.2188L83.7715 12.543ZM84.502 13.1645L83.8258 12.4887L84.502 11.8129L85.1782 12.4887L84.502 13.1645ZM85.2325 12.4344L85.9087 11.7586L85.2325 11.0829L84.5563 11.7586L85.2325 12.4344ZM84.502 11.7043L85.1782 11.0285L84.502 10.3528L83.8258 11.0285L84.502 11.7043ZM85.2869 11.0285L85.9631 11.7043L86.6393 11.0285L85.9631 10.3528L85.2869 11.0285ZM83.7171 11.0285L83.0409 11.7043L82.3647 11.0285L83.0409 10.3528L83.7171 11.0285ZM82.256 16.8693L81.5799 16.1935L80.9037 16.8693L81.5799 17.545L82.256 16.8693ZM80.8493 16.815L81.5255 16.1392L80.8493 15.4634L80.1731 16.1392L80.8493 16.815ZM80.1188 16.0849L80.795 15.4091L80.1188 14.7333L79.4426 15.4091L80.1188 16.0849ZM79.3883 15.4634L80.0644 16.1392L79.3883 16.815L78.7121 16.1392L79.3883 15.4634ZM79.3883 15.3548L80.0644 14.679L79.3883 14.0032L78.7121 14.679L79.3883 15.3548ZM78.6577 14.7333L79.3339 15.4091L78.6577 16.0849L77.9815 15.4091L78.6577 14.7333ZM78.6577 14.6247L79.3339 13.9489L78.6577 13.2731L77.9815 13.9489L78.6577 14.6247ZM77.9272 14.0032L78.6034 14.679L77.9272 15.3548L77.251 14.679L77.9272 14.0032ZM77.9272 13.8946L78.6034 13.2188L77.9272 12.543L77.251 13.2188L77.9272 13.8946ZM77.1967 13.2731L77.8728 13.9489L77.1966 14.6247L76.5205 13.9489L77.1967 13.2731ZM77.1966 13.1645L77.8728 12.4887L77.1966 11.8129L76.5205 12.4887L77.1966 13.1645ZM76.4661 12.543L77.1423 13.2188L76.4661 13.8946L75.7899 13.2188L76.4661 12.543ZM75.7356 13.2731L75.0594 13.9489L75.7356 14.6247L76.4118 13.9489L75.7356 13.2731ZM76.4661 14.0032L75.7899 14.679L76.4661 15.3548L77.1423 14.679L76.4661 14.0032ZM77.1967 14.7333L76.5205 15.4091L77.1967 16.0849L77.8728 15.4091L77.1967 14.7333ZM77.9272 15.4634L77.251 16.1392L77.9272 16.815L78.6034 16.1392L77.9272 15.4634ZM78.6577 16.1935L77.9815 16.8693L78.6577 17.545L79.3339 16.8693L78.6577 16.1935ZM77.8728 16.8693L77.1966 16.1935L76.5205 16.8693L77.1967 17.545L77.8728 16.8693ZM76.4661 16.815L77.1423 16.1392L76.4661 15.4634L75.7899 16.1392L76.4661 16.815ZM75.7356 16.0849L76.4118 15.4091L75.7356 14.7333L75.0594 15.4091L75.7356 16.0849ZM75.005 15.4634L75.6812 16.1392L75.005 16.815L74.3289 16.1392L75.005 15.4634ZM75.005 15.3548L75.6812 14.679L75.005 14.0032L74.3289 14.679L75.005 15.3548ZM74.2745 14.7333L74.9507 15.4091L74.2745 16.0849L73.5983 15.4091L74.2745 14.7333ZM73.544 15.4634L72.8678 16.1392L73.544 16.815L74.2202 16.1392L73.544 15.4634ZM74.2745 16.1935L73.5983 16.8693L74.2745 17.545L74.9507 16.8693L74.2745 16.1935ZM73.4896 16.8693L72.8134 16.1935L72.1372 16.8693L72.8134 17.5451L73.4896 16.8693ZM75.0594 16.8693L75.7356 16.1935L76.4118 16.8693L75.7356 17.545L75.0594 16.8693ZM79.4426 16.8693L80.1188 16.1935L80.795 16.8693L80.1188 17.545L79.4426 16.8693ZM79.3339 11.0285L78.6577 11.7043L77.9815 11.0285L78.6577 10.3528L79.3339 11.0285ZM69.8913 14.6247L70.5675 13.9489L69.8913 13.2731L69.2151 13.9489L69.8913 14.6247ZM69.9457 13.2188L70.6218 13.8946L71.298 13.2188L70.6218 12.543L69.9457 13.2188ZM70.6762 12.4887L71.3524 13.1645L72.0286 12.4887L71.3524 11.8129L70.6762 12.4887ZM71.4067 11.7586L72.0829 12.4344L72.7591 11.7586L72.0829 11.0829L71.4067 11.7586ZM72.1373 11.0285L72.8134 11.7043L73.4896 11.0285L72.8134 10.3528L72.1373 11.0285Z" fill="white"></path> </g> <defs> <linearGradient id="paint0_linear" x1="3.53516" y1="2.18164" x2="3.53516" y2="357.819" gradientUnits="userSpaceOnUse"> <stop stop-color="#5F5F5F"></stop> <stop offset="0.0101238" stop-color="#222222"></stop> <stop offset="1" stop-color="#252525"></stop> </linearGradient> <linearGradient id="paint1_linear" x1="5.20508" y1="3.85352" x2="5.20508" y2="355.589" gradientUnits="userSpaceOnUse"> <stop stop-color="#6D6D6D"></stop> <stop offset="0.0161168"></stop> <stop offset="0.984697"></stop> <stop offset="1" stop-color="#5C5C5C"></stop> </linearGradient> <linearGradient id="paint2_linear" x1="111.399" y1="16.3909" x2="111.399" y2="11.374" gradientUnits="userSpaceOnUse"> <stop stop-color="#1F1F1F"></stop> <stop offset="1" stop-color="#0F0F0F"></stop> </linearGradient> <radialGradient id="paint3_radial" cx="0" cy="0" r="1" gradientUnits="userSpaceOnUse" gradientTransform="translate(108.406 14.7303) rotate(104.451) scale(1.9244 1.68328)"> <stop stop-color="#154882"></stop> <stop offset="1"></stop> </radialGradient> <radialGradient id="paint4_radial" cx="0" cy="0" r="1" gradientUnits="userSpaceOnUse" gradientTransform="translate(108.87 13.1042) rotate(90) scale(1.81471 3.14364)"> <stop stop-color="#376CAB"></stop> <stop offset="0.377337" stop-color="#151515"></stop> <stop offset="0.536693"></stop> <stop offset="1" stop-color="#0D7BB9"></stop> </radialGradient> <radialGradient id="paint5_radial" cx="0" cy="0" r="1" gradientUnits="userSpaceOnUse" gradientTransform="translate(108.868 13.3878) rotate(90) scale(0.472866 0.472979)"> <stop stop-color="#694B8D"></stop> <stop offset="1" stop-opacity="0.01"></stop> </radialGradient> <radialGradient id="paint6_radial" cx="0" cy="0" r="1" gradientUnits="userSpaceOnUse" gradientTransform="translate(109.454 14.4445) rotate(90) scale(0.472866 0.472979)"> <stop stop-color="#80C2C8"></stop> <stop offset="1" stop-opacity="0.01"></stop> </radialGradient> <radialGradient id="paint7_radial" cx="0" cy="0" r="1" gradientUnits="userSpaceOnUse" gradientTransform="translate(108.868 13.4823) rotate(90) scale(0.732699 1.2636)"> <stop stop-color="#61737F"></stop> <stop offset="0.387832"></stop> <stop offset="1" stop-color="#227EB1"></stop> </radialGradient> <radialGradient id="paint8_radial" cx="0" cy="0" r="1" gradientUnits="userSpaceOnUse" gradientTransform="translate(108.714 14.0983) rotate(90) scale(0.768124 0.768591)"> <stop stop-color="white"></stop> <stop offset="1" stop-opacity="0.01"></stop> </radialGradient> </defs> </svg> 